# xmcd
#
# Track frame offsets: 
#        150
#        12640
#        28835
#        42338
#        55622
#        69642
#        83551
#        97233
#        110581
#        124639
#        138488
#        149656
#        163797
#        177410
#        191438
#        204773
#        218633
#        232071
#        244986
#        258165
#        271982
#        286031
#
# Disc length: 4004 seconds
#
# Revision: 0
# Processed by: cddbd v1.5.2PL0 Copyright (c) Steve Scherf et al.
# Submitted via: ExactAudioCopyFreeDBPlugin 1.0
#
DISCID=480fa216
DTITLE=Rev. H. R. Tomlin and Rev. S. J. Worell - Complete Recorded Wor
DTITLE=ks (1926-1927)
DYEAR=1995
DGENRE=Gospel
TTITLE0=Rev. H. R. Tomlin - Tell Me Where Is the Gambler?
TTITLE1=Rev. H. R. Tomlin - Amazing Grace
TTITLE2=Rev. H. R. Tomlin - My Soul Be on Thy Guard
TTITLE3=Rev. H. R. Tomlin - Come Ye That Love the Lord
TTITLE4=Rev. H. R. Tomlin - And Am I Born to Die
TTITLE5=Rev. H. R. Tomlin - Death's Black Train Is Coming
TTITLE6=Rev. H. R. Tomlin - Lord I Just Can't Help from Crying
TTITLE7=Rev. H. R. Tomlin - You Can Tell the World About This
TTITLE8=Rev. S. J. Worell "Steamboat Bill" - The Prodigal Son
TTITLE9=Rev. S. J. Worell "Steamboat Bill" - Noah Building the Ark
TTITLE10=Rev. S. J. Worell "Steamboat Bill" - Zacharias the Tax Collec
TTITLE10=tor
TTITLE11=Rev. S. J. Worell "Steamboat Bill" - Christ Healing the Blind
TTITLE12=Rev. S. J. Worell "Steamboat Bill" - Go Thou and Preach My Go
TTITLE12=spel
TTITLE13=Rev. S. J. Worell "Steamboat Bill" - Daniel in the Lion's Den
TTITLE14=Rev. S. J. Worell "Steamboat Bill" - Must I Bear the Cross Al
TTITLE14=one?
TTITLE15=Rev. S. J. Worell "Steamboat Bill" - What a Man Soweth So Sha
TTITLE15=ll He Reap
TTITLE16=Rev. S. J. Worell "Steamboat Bill" - Christ's Baptism
TTITLE17=Rev. S. J. Worell "Steamboat Bill" - He 'Rose from the Dead
TTITLE18=Rev. S. J. Worell "Steamboat Bill" - God Heard Prayer
TTITLE19=Rev. S. J. Worell "Steamboat Bill" - Black Horse Pawin' the V
TTITLE19=alley
TTITLE20=Rev. S. J. Worell "Steamboat Bill" - Happy as the Day Is Long
TTITLE21=Rev. S. J. Worell "Steamboat Bill" - Sing and Shout
EXTD=
EXTT0=
EXTT1=
EXTT2=
EXTT3=
EXTT4=
EXTT5=
EXTT6=
EXTT7=
EXTT8=
EXTT9=
EXTT10=
EXTT11=
EXTT12=
EXTT13=
EXTT14=
EXTT15=
EXTT16=
EXTT17=
EXTT18=
EXTT19=
EXTT20=
EXTT21=
PLAYORDER=
